# xmcd
#
# Track frame offsets:
#       150
#       16290
#       28839
#       52570
#       68973
#       83597
#       103202
#       116141
#       133369
#       151635
#       166159
#       184928
#
# Disc length: 2710 seconds
#
# Revision: 0
# Processed by: cddbd v1.5.2PL0 Copyright (c) Steve Scherf et al.
# Submitted via: WaveLab 6.11
#
DISCID=960a940c
DTITLE=Rick L. Blues - Seven
DYEAR=1900
DGENRE=
TTITLE0=Full Of Love 2
TTITLE1=My Babe
TTITLE2=Stones In My Passway
TTITLE3=That's Alright Mama
TTITLE4=Good Time Charlie
TTITLE5=Sweet Meat
TTITLE6=Hound Dog
TTITLE7=Blue Skirt Blues
TTITLE8=Who
TTITLE9=Flat Foot Floogie
TTITLE10=Sitting On Top Of The World
TTITLE11=Rosy May
EXTD=
EXTT0=
EXTT1=
EXTT2=
EXTT3=
EXTT4=
EXTT5=
EXTT6=
EXTT7=
EXTT8=
EXTT9=
EXTT10=
EXTT11=
PLAYORDER=
